<?xml version="1.0" encoding="UTF-8"?>
<svg id="Calque_2" data-name="Calque 2" xmlns="http://www.w3.org/2000/svg" viewBox="0 0 923.66 1074.09">
  <defs>
    <style>
      .cls-1 {
        fill: #b3305c;
      }

      .cls-2 {
        fill: #3fad54;
      }

      .cls-3 {
        fill: #f190ba;
      }
    </style>
  </defs>
  <g id="Calque_6" data-name="Calque 6">
    <path class="cls-3" d="m922.44,537.42c-.7-19.28-19.44-284.36-228.61-443.91C649.92,60.01,570.61-.48,459.45.76c-112.54,1.25-191,65.05-239.34,104.35C19.24,268.43,2.44,518.71,1.48,537.42c-3.28,63.68-13.22,257.03,132.28,402.68,132.81,132.95,303.21,134.18,325.7,133.98,174.02-1.54,297.85-100.84,327.91-130.25,150.54-147.31,137.19-348.08,135.08-406.41Zm-144.87,360.52c0,17.91-14.53,32.45-32.45,32.45H180.5c-17.91,0-32.44-14.53-32.44-32.45V229.39c0-17.91,14.52-32.44,32.44-32.44h564.63c17.91,0,32.45,14.52,32.45,32.44v668.55Z"/>
    <path class="cls-1" d="m406.43,133.4c-1.56,1.41-1.52,3.85.08,5.2,5.45,4.6,13.33,10.16,23.76,14.47,10.17,4.2,19.53,5.89,26.84,6.51,2.71.23,4.66-2.65,3.37-5.05-2.63-4.89-2.97-10.59-.73-15.33,2.22-4.7,7.15-8.8,13.25-9.11,9.4-.47,14.52,8.42,14.91,9.11,2.38,4.3,2.4,8.63,1.78,11.97-.5,2.7,2.15,4.89,4.69,3.84,3.66-1.51,7.98-3.94,12.01-7.86,2.33-2.27,12.1-11.77,11.34-26.17-.6-11.28-7.31-19.04-12.03-23.13-1.77-1.54-1.55-4.37.47-5.55,7.35-4.29,10.78-11.86,9.08-17.69-1.15-3.94-4.45-6.41-6.96-7.78-1.6-.87-3.6-.32-4.56,1.23-2.78,4.52-5.57,9.04-8.35,13.56-1.4,2.28-4.73,2.14-5.99-.22-6.86-12.89-17.44-22.07-28.81-22.53-17.35-.71-33.69,18.99-38.1,35.61-2.6,9.82-1.04,18.61-8.28,29.81-2.5,3.86-5.29,6.86-7.78,9.11Z"/>
    <path class="cls-2" d="m220.11,105.1C237.64,88.43,327.64-1.93,464.89.03c127.45,1.82,215.53,80.2,235.02,98.19.3,2.04-4.49,5.49-7.93,11.47-1.88,3.28-4.4,5.56-6.93,7.16-5.11,3.22-11.64,3.02-16.62-.39-27.32-18.72-96.07-78.25-203.55-78.45-113.07-.21-184.2,59.48-209.2,80.98-3.08,2.65-7.1,4.01-11.14,3.6-3.62-.37-8.13-1.55-12.47-4.65-9.28-6.61-11.78-11.23-11.96-12.84Z"/>
  </g>
</svg>