<?xml version="1.0" encoding="UTF-8"?>
<svg id="Calque_2" data-name="Calque 2" xmlns="http://www.w3.org/2000/svg" viewBox="0 0 3852.05 394.77">
  <defs>
    <style>
      .cls-1 {
        fill: #8aced7;
      }
    </style>
  </defs>
  <g id="_1" data-name="1">
    <path class="cls-1" d="m2029.55,394.77H0V31.3c9.8-2.37,24.24-5.96,41.67-10.66,42.05-11.37,42.24-13.24,52-14.67,42.35-6.22,51.75,27.13,96,29.33,45.04,2.24,51.23-31.53,97.33-29.33,40.73,1.94,43.55,28.67,84,30.67,44.95,2.21,52.31-30.26,100-30.67,45.31-.39,48.65,28.85,93,28,48.79-.94,60.46-36.63,103-30.43,32.63,4.76,32.12,26.69,64,30.43,43.6,5.11,56.76-34.47,100-30.43,36.87,3.45,39.46,33.36,74.67,34.43,39.13,1.18,47.71-35.41,86.66-34.43,36.21.92,39.76,32.81,77.34,35.76,39.94,3.14,49.45-31.83,97.33-35.76,39.46-3.23,40.79,19.89,86.67,23.76,66.01,5.58,89.66-40.06,138.66-23.76,30.8,10.25,28.19,30.51,56,34.43,41.78,5.89,57.54-38.43,100-34.43,36.18,3.41,41.41,37.15,74.67,35.76,32.75-1.36,37.83-34.48,70.67-35.76,33.68-1.3,39.96,33.1,74.66,33.1S1813.26.85,1849.67,3.54c18.64,1.38,20.11,11.07,48,22.43,9.19,3.75,17.57,6.17,25.22,7.73,30.63,6.27,49.64-1.23,62.78,6.94,13.01,8.07,40.51,180.92,43.88,354.13Z"/>
    <path class="cls-1" d="m3852.05,394.77h-1932.05V34.3c.9-.22,1.87-.42,2.89-.6,10.1-1.81,25.86-2.23,41.68-6.5,42.06-11.37,31.66-22.47,56.2-21.93,42.8.96,44.65,27.83,88.9,30.03,45.04,2.24,51.23-31.53,97.33-29.33,40.73,1.94,43.55,28.67,84,30.67,44.95,2.21,52.31-30.26,100-30.67,45.31-.39,48.65,28.85,93,28,48.79-.94,60.46-36.63,103-30.43,32.63,4.76,32.12,26.69,64,30.43,43.6,5.11,56.76-34.47,100-30.43,36.87,3.45,39.46,33.36,74.67,34.43,39.13,1.18,47.71-35.41,86.66-34.43,36.21.92,39.76,32.81,77.34,35.76,39.94,3.14,49.45-31.83,97.33-35.76,39.46-3.23,40.79,19.89,86.67,23.76,66.01,5.58,89.66-40.06,138.66-23.76,30.8,10.25,28.19,30.51,56,34.43,41.78,5.89,57.54-38.43,100-34.43,36.18,3.41,41.41,37.15,74.67,35.76,32.75-1.36,37.83-34.48,70.67-35.76,33.68-1.3,39.96,33.1,74.66,33.1s44.93-35.79,81.34-33.1c18.64,1.38,20.11,11.07,48,22.43,4.82,1.96,30,3.82,34.38,5.12v363.68Z"/>
  </g>
</svg>