<?xml version="1.0" encoding="UTF-8"?>
<svg id="Calque_2" data-name="Calque 2" xmlns="http://www.w3.org/2000/svg" viewBox="0 0 285.97 293.62">
  <defs>
    <style>
      .cls-1 {
        fill: #494359;
      }
    </style>
  </defs>
  <g id="Calque_2-2" data-name="Calque 2">
    <path class="cls-1" d="m111,0C49.7,0,0,48.23,0,107.74s49.7,107.74,111,107.74,111-48.23,111-107.74S172.3,0,111,0Zm-.2,178.16c-40.07,0-72.56-31.53-72.56-70.42S70.73,37.31,110.8,37.31s72.56,31.53,72.56,70.42-32.49,70.42-72.56,70.42Z"/>
    <path class="cls-1" d="m193.8,174.49c1.43.17,3.51.65,5.93,2.13.76.47,1.46,1.05,2.08,1.7l80.96,83.86c1.69,1.76,2.79,4.01,3.05,6.44s.21,5.54-.83,8.86c-3.41,10.84-14.35,14.48-16,15-4.26,1.34-8.18,1.31-11.18.9-2.47-.34-4.75-1.51-6.48-3.31l-79.3-82.43c-2.28-2.37-3.44-5.63-3.05-8.89,0-.03,0-.05,0-.08,1.56-12.55,13.65-25.49,24.8-24.18Z"/>
  </g>
</svg>